<?xml version="1.0" encoding="utf-8"?>
<!-- Generator: Adobe Illustrator 24.0.1, SVG Export Plug-In . SVG Version: 6.00 Build 0)  -->
<svg version="1.1" id="Layer_1" xmlns="http://www.w3.org/2000/svg" xmlns:xlink="http://www.w3.org/1999/xlink" x="0px" y="0px"
	 viewBox="0 0 85.04 89.56" style="enable-background:new 0 0 85.04 89.56;" xml:space="preserve">
<style type="text/css">
	.st0{fill:#2B2D71;}
	.st1{fill:#56BBE8;}
</style>
<g>
	<path class="st0" d="M911.55,517.56c-0.29-0.26-0.68-0.46-0.85-0.78c-0.5-0.91,0.1-1.8,1.19-1.81c4.02-0.01,8.04-0.03,12.06,0.01
		c0.85,0.01,1.19-0.18,1.35-1.1c1.21-6.94,2.51-13.87,3.77-20.8c1.33-7.3,2.67-14.61,4-21.91c0.47-2.57,0.96-5.13,1.38-7.7
		c0.16-0.96,0.73-1.26,1.56-1.29c1.01-0.03,2.02-0.01,3.09-0.01c-0.66-1.02-1.24-1.94-1.88-2.93c-1.25,0.89-2.65,1.03-3.95,0.18
		c-0.75-0.49-1.49-1.19-1.89-1.97c-1.48-2.9-1.18-5.75,0.74-8.36c1.45-1.97,4.4-1.64,6.02,0.6c0.24,0.32,0.43,0.68,0.79,1.27
		c0.55-1.88,0.16-3.58,0.31-5.38c-0.43,0-0.77,0.02-1.1,0c-0.77-0.06-1.23-0.56-1.22-1.31c0.01-0.8,0.4-1.26,1.25-1.2
		c0.95,0.07,1.17-0.34,1.06-1.17c-0.04-0.34-0.01-0.69-0.01-1.17c-1.13,0-2.17,0.01-3.21,0c-1.09-0.01-1.53-0.39-1.52-1.24
		c0.01-0.81,0.54-1.28,1.52-1.3c1.02-0.02,2.04,0,3.13,0c0-0.73,0-1.41,0-2.15c-0.93-0.16-2.29,0.2-2.21-1.44
		c0.07-1.46,1.3-1.08,2.29-1.21c0-1.1-0.01-2.17,0-3.24c0.01-0.93,0.46-1.45,1.25-1.45c0.89,0,1.28,0.44,1.29,1.47
		c0.01,1.04,0,2.09,0,3.2c0.99,0.17,2.39-0.24,2.34,1.38c-0.05,1.47-1.29,1.18-2.28,1.25c0,0.71,0,1.37,0,2.18
		c1.07,0,2.13-0.02,3.19,0.01c1.03,0.03,1.47,0.45,1.47,1.31c0,0.78-0.4,1.2-1.16,1.22c-0.87,0.03-1.75,0.07-2.62-0.01
		c-0.81-0.07-1.05,0.25-0.94,0.99c0.02,0.14,0.02,0.29,0,0.44c-0.09,0.67,0.15,0.93,0.86,0.91c0.98-0.04,1.57,0.49,1.54,1.24
		c-0.03,0.79-0.59,1.25-1.56,1.28c-0.23,0.01-0.46,0-0.77,0c0,0.96,0,1.87,0,2.9c3.04-1.22,5.89-0.82,8.49,1.05
		c1.58,1.14,2.61,2.71,3.13,4.6c1.21,4.4-1.66,9.44-6.64,10.55c0.25,1.42,0.5,2.84,0.76,4.26c1.15,6.31,2.29,12.61,3.44,18.92
		c0.97,5.31,1.94,10.61,2.91,15.92c0.62,3.42,1.24,6.84,1.83,10.27c0.11,0.66,0.35,0.91,1.07,0.91c3.96-0.04,7.92-0.01,11.88-0.02
		c0.72,0,1.46-0.03,1.71,0.84c0.24,0.87-0.19,1.43-0.98,1.77C950.15,517.56,930.85,517.56,911.55,517.56z M928.61,514.88
		c8.01,0,15.8,0,23.81,0c-4.09-3.29-7.99-6.43-11.91-9.57C936.56,508.48,932.67,511.61,928.61,514.88z M945.27,462.17
		c3.12,0.1,6.07-2.57,5.94-5.97c-0.14-3.65-2.86-5.84-5.75-5.83c-3.26,0.01-6.06,2.38-6.08,5.77
		C939.36,459.6,942.15,462.31,945.27,462.17z M932.43,495.55c2.73,2.2,5.38,4.34,8.08,6.52c2.7-2.18,5.35-4.32,8.08-6.51
		c-2.75-2.37-5.4-4.65-8.08-6.96C937.8,490.93,935.15,493.21,932.43,495.55z M930.82,497.51c-0.88,4.85-1.73,9.51-2.58,14.17
		c0.07,0.03,0.15,0.05,0.22,0.08c3.31-2.67,6.63-5.34,10.04-8.09C935.92,501.6,933.44,499.61,930.82,497.51z M952.83,511.96
		c-0.89-4.93-1.74-9.59-2.62-14.44c-2.64,2.11-5.12,4.1-7.69,6.16C945.94,506.43,949.28,509.11,952.83,511.96z M940.51,485.24
		c1.89-1.63,3.74-3.24,5.67-4.9c-1.94-1.87-3.78-3.64-5.76-5.55c-1.82,1.96-3.57,3.84-5.34,5.76
		C936.79,482.03,938.64,483.63,940.51,485.24z M944.23,464.72c-1.3,0-2.52,0-3.73,0c-1.24,0-2.48,0-3.69,0
		c-0.52,2.52-0.52,2.52,1.18,4.21c0.82,0.81,1.66,1.59,2.54,2.43c1.38-1.33,2.68-2.57,3.96-3.83c0.13-0.13,0.18-0.43,0.15-0.63
		C944.53,466.2,944.38,465.53,944.23,464.72z M933.53,482.57c-0.63,3.45-1.21,6.68-1.79,9.9c0.07,0.04,0.15,0.09,0.22,0.13
		c2.18-1.87,4.36-3.75,6.61-5.68C936.91,485.48,935.31,484.1,933.53,482.57z M942.47,486.92c2.27,1.95,4.49,3.86,6.9,5.93
		c-0.65-3.56-1.25-6.84-1.88-10.27C945.74,484.09,944.15,485.47,942.47,486.92z M936.98,454.21c-0.24-1.05-0.32-1.94-0.67-2.71
		c-0.22-0.48-0.82-1.02-1.3-1.07c-0.43-0.04-1.11,0.45-1.35,0.88c-0.95,1.75-0.89,3.58,0.05,5.33c0.56,1.04,1.7,1.1,2.3,0.08
		C936.49,455.94,936.69,454.99,936.98,454.21z M934.54,477.08c1.43-1.49,2.68-2.78,3.64-3.79c-0.79-0.86-1.63-1.78-2.47-2.7
		C935.34,472.65,934.96,474.74,934.54,477.08z M945.29,470.44c-0.92,1.01-1.77,1.95-2.68,2.95c1.08,1.03,2.35,2.24,3.62,3.45
		c0.07-0.03,0.14-0.07,0.2-0.1C946.05,474.66,945.68,472.59,945.29,470.44z"/>
	<path class="st1" d="M969.62,428c2.07,1.38,3.48,3.38,4.94,5.31c3.89,5.19,6.48,10.99,7.72,17.36c0.91,4.68,1,9.39,0.29,14.13
		c-1.12,7.49-4.02,14.2-8.62,20.18c-0.96,1.24-2.03,2.39-3.1,3.54c-0.99,1.07-1.98,1.14-2.88,0.31c-0.94-0.87-0.93-1.92,0.07-2.95
		c2.32-2.39,4.32-5.02,5.98-7.91c2.44-4.25,4.04-8.78,4.74-13.63c0.91-6.39,0.27-12.62-1.91-18.7c-1.78-4.96-4.47-9.36-8.05-13.23
		c-0.28-0.3-0.51-0.65-0.82-0.9c-1.31-1.04-0.56-3.02,0.85-3.33c0.1-0.02,0.18-0.12,0.27-0.18C969.27,428,969.45,428,969.62,428z"/>
	<path class="st1" d="M911.9,428c0.06,0.06,0.11,0.14,0.18,0.16c1.83,0.62,2.2,2.05,0.91,3.46c-0.94,1.03-1.9,2.05-2.76,3.15
		c-4.08,5.22-6.75,11.06-7.83,17.62c-1.38,8.35-0.07,16.29,3.69,23.85c1.78,3.56,4.09,6.76,6.88,9.6c1.02,1.04,1.07,2.03,0.12,2.95
		c-0.87,0.85-1.92,0.79-2.89-0.24c-6.11-6.41-10.09-13.92-11.57-22.69c-1.86-11.1,0.47-21.34,6.57-30.72
		c1.42-2.18,3.23-4.1,4.92-6.1c0.37-0.44,0.95-0.7,1.43-1.05C911.67,428,911.78,428,911.9,428z"/>
	<path class="st1" d="M971.73,458.66c-0.11,8.47-3.04,15.8-8.9,21.94c-0.99,1.04-2,1.08-2.88,0.22c-0.85-0.83-0.82-1.89,0.13-2.91
		c3.38-3.61,5.88-7.73,7-12.57c2.26-9.77-0.18-18.32-6.95-25.68c-1.04-1.13-1.04-2.46,0.06-3.23c0.84-0.58,1.71-0.48,2.51,0.31
		c3.01,3,5.27,6.5,6.84,10.43C971,450.86,971.84,454.66,971.73,458.66z"/>
	<path class="st1" d="M921.84,438.22c-0.33,0.49-0.59,1.03-0.99,1.45c-2.92,3.09-5.08,6.63-6.38,10.68
		c-2.07,6.42-1.7,12.74,0.83,18.96c1.32,3.25,3.28,6.07,5.67,8.61c0.93,0.99,0.97,2.08,0.09,2.9c-0.91,0.85-1.94,0.78-2.89-0.23
		c-2.59-2.75-4.69-5.83-6.23-9.29c-2.08-4.66-2.94-9.54-2.58-14.61c0.45-6.3,2.59-11.99,6.44-17.01c0.8-1.04,1.69-2,2.57-2.97
		c0.55-0.61,1.25-0.84,2.05-0.49C921.22,436.59,921.72,437.18,921.84,438.22z"/>
	<path class="st1" d="M927.57,443.96c1.03,0.19,1.65,0.61,1.98,1.4c0.35,0.82,0.05,1.48-0.51,2.06c-2.13,2.21-3.57,4.83-4.18,7.82
		c-1.11,5.48,0.2,10.36,3.96,14.53c1.06,1.18,1.16,2.09,0.23,3.04c-0.8,0.83-1.84,0.84-2.68-0.02c-3.14-3.19-4.98-7.02-5.54-11.47
		c-0.61-4.83,0.35-9.31,2.97-13.41c0.73-1.14,1.63-2.19,2.53-3.21C926.67,444.34,927.24,444.15,927.57,443.96z"/>
	<path class="st1" d="M960.46,458.84c-0.11,5.29-2,9.82-5.5,13.71c-0.53,0.59-1.14,1.06-1.98,0.84c-0.84-0.22-1.52-0.77-1.56-1.67
		c-0.02-0.54,0.2-1.22,0.56-1.62c1.74-1.96,3.15-4.11,3.85-6.65c1.66-5.96,0.42-11.26-3.72-15.86c-0.6-0.67-1.01-1.36-0.62-2.27
		c0.6-1.4,2.19-1.71,3.25-0.6c2.68,2.79,4.45,6.09,5.2,9.89C960.22,456,960.3,457.43,960.46,458.84z"/>
</g>
<g>
	<path class="st0" d="M13.55,89.56c-0.29-0.26-0.68-0.46-0.85-0.78c-0.5-0.91,0.1-1.8,1.19-1.81c4.02-0.01,8.04-0.03,12.06,0.01
		c0.85,0.01,1.19-0.18,1.35-1.1c1.21-6.94,2.51-13.87,3.77-20.8c1.33-7.3,2.67-14.61,4-21.91c0.47-2.57,0.96-5.13,1.38-7.7
		c0.16-0.96,0.73-1.26,1.56-1.29c1.01-0.03,2.02-0.01,3.09-0.01c-0.66-1.02-1.24-1.94-1.88-2.93c-1.25,0.89-2.65,1.03-3.95,0.18
		c-0.75-0.49-1.49-1.19-1.89-1.97c-1.48-2.9-1.18-5.75,0.74-8.36c1.45-1.97,4.4-1.64,6.02,0.6c0.24,0.32,0.43,0.68,0.79,1.27
		c0.55-1.88,0.16-3.58,0.31-5.38c-0.43,0-0.77,0.02-1.1,0c-0.77-0.06-1.23-0.56-1.22-1.31c0.01-0.8,0.4-1.26,1.25-1.2
		c0.95,0.07,1.17-0.34,1.06-1.17c-0.04-0.34-0.01-0.69-0.01-1.17c-1.13,0-2.17,0.01-3.21,0c-1.09-0.01-1.53-0.39-1.52-1.24
		c0.01-0.81,0.54-1.28,1.52-1.3c1.02-0.02,2.04,0,3.13,0c0-0.73,0-1.41,0-2.15c-0.93-0.16-2.29,0.2-2.21-1.44
		c0.07-1.46,1.3-1.08,2.29-1.21c0-1.1-0.01-2.17,0-3.24c0.01-0.93,0.46-1.45,1.25-1.45c0.89,0,1.28,0.44,1.29,1.47
		c0.01,1.04,0,2.09,0,3.2c0.99,0.17,2.39-0.24,2.34,1.38c-0.05,1.47-1.29,1.18-2.28,1.25c0,0.71,0,1.37,0,2.18
		c1.07,0,2.13-0.02,3.19,0.01c1.03,0.03,1.47,0.45,1.47,1.31c0,0.78-0.4,1.2-1.16,1.22c-0.87,0.03-1.75,0.07-2.62-0.01
		c-0.81-0.07-1.05,0.25-0.94,0.99c0.02,0.14,0.02,0.29,0,0.44c-0.09,0.67,0.15,0.93,0.86,0.91c0.98-0.04,1.57,0.49,1.54,1.24
		c-0.03,0.79-0.59,1.25-1.56,1.28c-0.23,0.01-0.46,0-0.77,0c0,0.96,0,1.87,0,2.9c3.04-1.22,5.89-0.82,8.49,1.05
		c1.58,1.14,2.61,2.71,3.13,4.6c1.21,4.4-1.66,9.44-6.64,10.55c0.25,1.42,0.5,2.84,0.76,4.26c1.15,6.31,2.29,12.61,3.44,18.92
		c0.97,5.31,1.94,10.61,2.91,15.92c0.62,3.42,1.24,6.84,1.83,10.27c0.11,0.66,0.35,0.91,1.07,0.91c3.96-0.04,7.92-0.01,11.88-0.02
		c0.72,0,1.46-0.03,1.71,0.84c0.24,0.87-0.19,1.43-0.98,1.77C52.15,89.56,32.85,89.56,13.55,89.56z M30.61,86.88
		c8.01,0,15.8,0,23.81,0c-4.09-3.29-7.99-6.43-11.91-9.57C38.56,80.48,34.67,83.61,30.61,86.88z M47.27,34.17
		c3.12,0.1,6.07-2.57,5.94-5.97c-0.14-3.65-2.86-5.84-5.75-5.83c-3.26,0.01-6.06,2.38-6.08,5.77C41.36,31.6,44.15,34.31,47.27,34.17
		z M34.43,67.55c2.73,2.2,5.38,4.34,8.08,6.52c2.7-2.18,5.35-4.32,8.08-6.51c-2.75-2.37-5.4-4.65-8.08-6.96
		C39.8,62.93,37.15,65.21,34.43,67.55z M32.82,69.51c-0.88,4.85-1.73,9.51-2.58,14.17c0.07,0.03,0.15,0.05,0.22,0.08
		c3.31-2.67,6.63-5.34,10.04-8.09C37.92,73.6,35.44,71.61,32.82,69.51z M54.83,83.96c-0.89-4.93-1.74-9.59-2.62-14.44
		c-2.64,2.11-5.12,4.1-7.69,6.16C47.94,78.43,51.28,81.11,54.83,83.96z M42.51,57.24c1.89-1.63,3.74-3.24,5.67-4.9
		c-1.94-1.87-3.78-3.64-5.76-5.55c-1.82,1.96-3.57,3.84-5.34,5.76C38.79,54.03,40.64,55.63,42.51,57.24z M46.23,36.72
		c-1.3,0-2.52,0-3.73,0c-1.24,0-2.48,0-3.69,0c-0.52,2.52-0.52,2.52,1.18,4.21c0.82,0.81,1.66,1.59,2.54,2.43
		c1.38-1.33,2.68-2.57,3.96-3.83c0.13-0.13,0.18-0.43,0.15-0.63C46.53,38.2,46.38,37.53,46.23,36.72z M35.53,54.57
		c-0.63,3.45-1.21,6.68-1.79,9.9c0.07,0.04,0.15,0.09,0.22,0.13c2.18-1.87,4.36-3.75,6.61-5.68C38.91,57.48,37.31,56.1,35.53,54.57z
		 M44.47,58.92c2.27,1.95,4.49,3.86,6.9,5.93c-0.65-3.56-1.25-6.84-1.88-10.27C47.74,56.09,46.15,57.47,44.47,58.92z M38.98,26.21
		c-0.24-1.05-0.32-1.94-0.67-2.71c-0.22-0.48-0.82-1.02-1.3-1.07c-0.43-0.04-1.11,0.44-1.35,0.88c-0.95,1.75-0.89,3.58,0.05,5.33
		c0.56,1.04,1.7,1.1,2.3,0.08C38.49,27.94,38.69,26.99,38.98,26.21z M36.54,49.08c1.43-1.49,2.68-2.78,3.64-3.79
		c-0.79-0.86-1.63-1.78-2.47-2.7C37.34,44.65,36.96,46.74,36.54,49.08z M47.29,42.44c-0.92,1.01-1.77,1.95-2.68,2.95
		c1.08,1.03,2.35,2.24,3.62,3.45c0.07-0.03,0.14-0.07,0.2-0.1C48.05,46.66,47.68,44.59,47.29,42.44z"/>
	<path class="st1" d="M71.62,0c2.07,1.38,3.48,3.38,4.94,5.31c3.89,5.19,6.48,10.99,7.72,17.36c0.91,4.68,1,9.39,0.29,14.13
		c-1.12,7.49-4.02,14.2-8.62,20.18c-0.96,1.24-2.03,2.39-3.1,3.54c-0.99,1.07-1.98,1.14-2.88,0.31c-0.94-0.87-0.93-1.92,0.07-2.95
		c2.32-2.39,4.32-5.02,5.98-7.91c2.44-4.25,4.04-8.78,4.74-13.63c0.91-6.39,0.27-12.62-1.91-18.7c-1.78-4.96-4.47-9.36-8.05-13.23
		c-0.28-0.3-0.51-0.65-0.82-0.9c-1.31-1.04-0.56-3.02,0.85-3.33c0.1-0.02,0.18-0.12,0.27-0.18C71.27,0,71.45,0,71.62,0z"/>
	<path class="st1" d="M13.9,0c0.06,0.06,0.11,0.14,0.18,0.16c1.83,0.62,2.2,2.05,0.91,3.46c-0.94,1.03-1.9,2.05-2.76,3.15
		C8.15,11.99,5.48,17.84,4.4,24.39c-1.38,8.35-0.07,16.29,3.69,23.85c1.78,3.56,4.09,6.76,6.88,9.6c1.02,1.04,1.07,2.03,0.12,2.95
		c-0.87,0.85-1.92,0.79-2.89-0.24C6.08,54.14,2.1,46.63,0.63,37.86C-1.24,26.76,1.1,16.53,7.2,7.15c1.42-2.18,3.23-4.1,4.92-6.1
		c0.37-0.44,0.95-0.7,1.43-1.05C13.67,0,13.78,0,13.9,0z"/>
	<path class="st1" d="M73.73,30.66c-0.11,8.47-3.04,15.8-8.9,21.94c-0.99,1.04-2,1.08-2.88,0.22c-0.85-0.83-0.82-1.89,0.13-2.91
		c3.38-3.61,5.88-7.73,7-12.57c2.26-9.77-0.18-18.32-6.95-25.68c-1.04-1.13-1.04-2.46,0.06-3.23c0.84-0.58,1.71-0.48,2.51,0.31
		c3.01,3,5.27,6.5,6.84,10.43C73,22.86,73.84,26.66,73.73,30.66z"/>
	<path class="st1" d="M23.84,10.22c-0.33,0.49-0.59,1.03-0.99,1.45c-2.92,3.09-5.08,6.63-6.38,10.68
		c-2.07,6.42-1.7,12.74,0.83,18.96c1.32,3.25,3.28,6.07,5.67,8.61c0.93,0.99,0.97,2.08,0.09,2.9c-0.91,0.85-1.94,0.78-2.89-0.23
		c-2.59-2.75-4.69-5.83-6.23-9.29c-2.08-4.66-2.94-9.54-2.58-14.61c0.45-6.3,2.59-11.99,6.44-17.01c0.8-1.04,1.69-2,2.57-2.97
		c0.55-0.61,1.25-0.84,2.05-0.49C23.22,8.59,23.72,9.18,23.84,10.22z"/>
	<path class="st1" d="M29.57,15.96c1.03,0.19,1.65,0.61,1.98,1.4c0.35,0.82,0.05,1.48-0.51,2.06c-2.13,2.21-3.57,4.83-4.18,7.82
		c-1.11,5.48,0.2,10.36,3.96,14.53c1.06,1.18,1.16,2.09,0.23,3.04c-0.8,0.83-1.84,0.84-2.68-0.02c-3.14-3.19-4.98-7.02-5.54-11.47
		c-0.61-4.83,0.35-9.31,2.97-13.41c0.73-1.14,1.63-2.19,2.53-3.21C28.67,16.34,29.24,16.15,29.57,15.96z"/>
	<path class="st1" d="M62.46,30.84c-0.11,5.29-2,9.82-5.5,13.71c-0.53,0.59-1.14,1.06-1.98,0.84c-0.84-0.22-1.52-0.77-1.56-1.67
		c-0.02-0.54,0.2-1.22,0.56-1.62c1.74-1.96,3.15-4.11,3.85-6.65c1.66-5.96,0.42-11.26-3.72-15.86c-0.6-0.67-1.01-1.36-0.62-2.27
		c0.6-1.4,2.19-1.71,3.25-0.6c2.68,2.79,4.45,6.09,5.19,9.89C62.22,28,62.3,29.43,62.46,30.84z"/>
</g>
</svg>
