<?xml version="1.0" encoding="utf-8"?>
<!-- Generator: Adobe Illustrator 24.0.1, SVG Export Plug-In . SVG Version: 6.00 Build 0)  -->
<svg version="1.1" id="Layer_1" xmlns="http://www.w3.org/2000/svg" xmlns:xlink="http://www.w3.org/1999/xlink" x="0px" y="0px"
	 viewBox="0 0 94.77 93.51" style="enable-background:new 0 0 94.77 93.51;" xml:space="preserve">
<style type="text/css">
	.st0{fill:#2B2D71;}
	.st1{fill:#56BBE8;}
	.st2{fill:#9D6BBD;}
	.st3{fill:#FFFFFF;}
</style>
<g>
	<path class="st0" d="M916.12,521.02c-0.29-0.26-0.68-0.46-0.85-0.78c-0.5-0.91,0.1-1.8,1.19-1.81c4.02-0.01,8.04-0.03,12.06,0.01
		c0.85,0.01,1.19-0.18,1.35-1.1c1.21-6.94,2.51-13.87,3.77-20.8c1.33-7.3,2.67-14.61,4-21.91c0.47-2.57,0.96-5.13,1.38-7.7
		c0.16-0.96,0.73-1.26,1.56-1.29c1.01-0.03,2.02-0.01,3.09-0.01c-0.66-1.02-1.24-1.94-1.88-2.93c-1.25,0.89-2.65,1.03-3.95,0.18
		c-0.75-0.49-1.49-1.19-1.89-1.97c-1.48-2.9-1.18-5.75,0.74-8.36c1.45-1.97,4.4-1.64,6.02,0.6c0.24,0.32,0.43,0.68,0.79,1.27
		c0.55-1.88,0.16-3.58,0.31-5.38c-0.43,0-0.77,0.02-1.1,0c-0.77-0.06-1.23-0.56-1.22-1.31c0.01-0.8,0.4-1.26,1.25-1.2
		c0.95,0.07,1.17-0.34,1.06-1.17c-0.04-0.34-0.01-0.69-0.01-1.17c-1.13,0-2.17,0.01-3.21,0c-1.09-0.01-1.53-0.39-1.52-1.24
		c0.01-0.81,0.54-1.28,1.52-1.3c1.02-0.02,2.04,0,3.13,0c0-0.73,0-1.41,0-2.15c-0.93-0.16-2.29,0.2-2.21-1.44
		c0.07-1.46,1.3-1.08,2.29-1.21c0-1.1-0.01-2.17,0-3.24c0.01-0.93,0.46-1.45,1.25-1.45c0.89,0,1.28,0.44,1.29,1.47
		c0.01,1.04,0,2.09,0,3.2c0.99,0.17,2.39-0.24,2.34,1.38c-0.05,1.47-1.29,1.18-2.28,1.25c0,0.71,0,1.37,0,2.18
		c1.07,0,2.13-0.02,3.19,0.01c1.03,0.03,1.47,0.45,1.47,1.31c0,0.78-0.4,1.2-1.16,1.22c-0.87,0.03-1.75,0.07-2.62-0.01
		c-0.81-0.07-1.05,0.25-0.94,0.99c0.02,0.14,0.02,0.29,0,0.44c-0.09,0.67,0.15,0.93,0.86,0.91c0.98-0.04,1.57,0.49,1.54,1.24
		c-0.03,0.79-0.59,1.25-1.56,1.28c-0.23,0.01-0.46,0-0.77,0c0,0.96,0,1.87,0,2.9c3.04-1.22,5.89-0.82,8.49,1.05
		c1.58,1.14,2.61,2.71,3.13,4.6c1.21,4.4-1.66,9.44-6.64,10.55c0.25,1.42,0.5,2.84,0.76,4.26c1.15,6.31,2.29,12.61,3.44,18.92
		c0.97,5.31,1.94,10.61,2.91,15.92c0.62,3.42,1.24,6.84,1.83,10.27c0.11,0.66,0.35,0.91,1.07,0.91c3.96-0.04,7.92-0.01,11.88-0.02
		c0.72,0,1.46-0.03,1.71,0.84c0.24,0.87-0.19,1.43-0.98,1.77C954.71,521.02,935.41,521.02,916.12,521.02z M933.17,518.34
		c8.01,0,15.8,0,23.81,0c-4.09-3.29-7.99-6.43-11.91-9.57C941.12,511.95,937.23,515.08,933.17,518.34z M949.84,465.64
		c3.12,0.1,6.07-2.57,5.94-5.97c-0.14-3.65-2.86-5.84-5.75-5.83c-3.26,0.01-6.06,2.38-6.08,5.77
		C943.93,463.07,946.71,465.77,949.84,465.64z M937,499.02c2.73,2.2,5.38,4.34,8.08,6.52c2.7-2.18,5.35-4.32,8.08-6.51
		c-2.75-2.37-5.4-4.65-8.08-6.96C942.37,494.39,939.72,496.68,937,499.02z M935.39,500.98c-0.88,4.85-1.73,9.51-2.58,14.17
		c0.07,0.03,0.15,0.05,0.22,0.08c3.31-2.67,6.63-5.34,10.04-8.09C940.48,505.07,938,503.08,935.39,500.98z M957.4,515.43
		c-0.89-4.93-1.74-9.59-2.62-14.44c-2.64,2.11-5.12,4.1-7.69,6.16C950.51,509.9,953.84,512.57,957.4,515.43z M945.08,488.71
		c1.89-1.63,3.74-3.24,5.67-4.9c-1.94-1.87-3.78-3.64-5.76-5.55c-1.82,1.96-3.57,3.84-5.34,5.76
		C941.36,485.5,943.2,487.09,945.08,488.71z M948.8,468.19c-1.3,0-2.52,0-3.73,0c-1.24,0-2.48,0-3.69,0
		c-0.52,2.52-0.52,2.52,1.18,4.21c0.82,0.81,1.66,1.59,2.54,2.43c1.38-1.33,2.68-2.57,3.96-3.83c0.13-0.13,0.18-0.43,0.15-0.63
		C949.1,469.67,948.95,468.99,948.8,468.19z M938.1,486.04c-0.63,3.45-1.21,6.68-1.79,9.9c0.07,0.04,0.15,0.09,0.22,0.13
		c2.18-1.87,4.36-3.75,6.61-5.68C941.47,488.95,939.88,487.57,938.1,486.04z M947.03,490.39c2.27,1.95,4.49,3.86,6.9,5.93
		c-0.65-3.56-1.25-6.84-1.88-10.27C950.31,487.56,948.71,488.94,947.03,490.39z M941.54,457.68c-0.24-1.05-0.32-1.94-0.67-2.71
		c-0.22-0.48-0.82-1.02-1.3-1.07c-0.43-0.04-1.11,0.45-1.35,0.88c-0.95,1.75-0.89,3.58,0.05,5.33c0.56,1.04,1.7,1.1,2.3,0.08
		C941.06,459.4,941.26,458.45,941.54,457.68z M939.11,480.55c1.43-1.49,2.68-2.78,3.64-3.79c-0.79-0.86-1.63-1.78-2.47-2.7
		C939.9,476.12,939.53,478.21,939.11,480.55z M949.85,473.91c-0.92,1.01-1.77,1.95-2.68,2.95c1.08,1.03,2.35,2.24,3.62,3.45
		c0.07-0.03,0.14-0.07,0.2-0.1C950.62,478.13,950.24,476.05,949.85,473.91z"/>
	<path class="st1" d="M974.19,431.47c2.07,1.38,3.48,3.38,4.94,5.31c3.89,5.19,6.48,10.99,7.72,17.36c0.91,4.68,1,9.39,0.29,14.13
		c-1.12,7.49-4.02,14.2-8.62,20.18c-0.96,1.24-2.03,2.39-3.1,3.54c-0.99,1.07-1.98,1.14-2.88,0.31c-0.94-0.87-0.93-1.92,0.07-2.95
		c2.32-2.39,4.32-5.02,5.98-7.91c2.44-4.25,4.04-8.78,4.74-13.63c0.91-6.39,0.27-12.62-1.91-18.7c-1.78-4.96-4.47-9.36-8.05-13.23
		c-0.28-0.3-0.51-0.65-0.82-0.9c-1.31-1.04-0.56-3.02,0.85-3.33c0.1-0.02,0.18-0.12,0.27-0.18
		C973.84,431.47,974.01,431.47,974.19,431.47z"/>
	<path class="st1" d="M916.47,431.47c0.06,0.06,0.11,0.14,0.18,0.16c1.83,0.62,2.2,2.05,0.91,3.46c-0.94,1.03-1.9,2.05-2.76,3.15
		c-4.08,5.22-6.75,11.06-7.83,17.62c-1.38,8.35-0.07,16.29,3.69,23.85c1.78,3.56,4.09,6.76,6.88,9.6c1.02,1.04,1.07,2.03,0.12,2.95
		c-0.87,0.85-1.92,0.79-2.89-0.24c-6.11-6.41-10.09-13.92-11.57-22.69c-1.86-11.1,0.47-21.34,6.57-30.72
		c1.42-2.18,3.23-4.1,4.92-6.1c0.37-0.44,0.95-0.7,1.43-1.05C916.23,431.47,916.35,431.47,916.47,431.47z"/>
	<path class="st1" d="M976.3,462.13c-0.11,8.47-3.04,15.8-8.9,21.94c-0.99,1.04-2,1.08-2.88,0.22c-0.85-0.83-0.82-1.89,0.13-2.91
		c3.38-3.61,5.88-7.73,7-12.57c2.26-9.77-0.18-18.32-6.95-25.68c-1.04-1.13-1.04-2.46,0.06-3.23c0.84-0.58,1.71-0.48,2.51,0.31
		c3.01,3,5.27,6.5,6.84,10.43C975.56,454.32,976.4,458.13,976.3,462.13z"/>
	<path class="st1" d="M926.41,441.69c-0.33,0.49-0.59,1.03-0.99,1.45c-2.92,3.09-5.08,6.63-6.38,10.68
		c-2.07,6.42-1.7,12.74,0.83,18.96c1.32,3.25,3.28,6.07,5.67,8.61c0.93,0.99,0.97,2.08,0.09,2.9c-0.91,0.85-1.94,0.78-2.89-0.23
		c-2.59-2.75-4.69-5.83-6.23-9.29c-2.08-4.66-2.94-9.54-2.58-14.61c0.45-6.3,2.59-11.99,6.44-17.01c0.8-1.04,1.69-2,2.57-2.97
		c0.55-0.61,1.25-0.84,2.05-0.49C925.79,440.06,926.28,440.64,926.41,441.69z"/>
	<path class="st1" d="M932.13,447.43c1.03,0.19,1.65,0.61,1.98,1.4c0.35,0.82,0.05,1.48-0.51,2.06c-2.13,2.21-3.57,4.83-4.18,7.82
		c-1.11,5.48,0.2,10.36,3.96,14.53c1.06,1.18,1.16,2.09,0.23,3.04c-0.8,0.83-1.84,0.84-2.68-0.02c-3.14-3.19-4.98-7.02-5.54-11.47
		c-0.61-4.83,0.35-9.31,2.97-13.41c0.73-1.14,1.63-2.19,2.53-3.21C931.24,447.8,931.8,447.62,932.13,447.43z"/>
	<path class="st1" d="M965.03,462.31c-0.11,5.29-2,9.82-5.5,13.71c-0.53,0.59-1.14,1.06-1.98,0.84c-0.84-0.22-1.52-0.77-1.56-1.67
		c-0.02-0.54,0.2-1.22,0.56-1.62c1.74-1.96,3.15-4.11,3.85-6.65c1.66-5.96,0.42-11.26-3.72-15.86c-0.6-0.67-1.01-1.36-0.62-2.27
		c0.6-1.4,2.19-1.71,3.25-0.6c2.68,2.79,4.45,6.09,5.19,9.89C964.78,459.47,964.86,460.9,965.03,462.31z"/>
</g>
<g>
	<g id="Layer_481_3_">
		<path class="st0" d="M89.15,93.49H8.61c-2.48,0-4.5-2.01-4.5-4.5V34.98h89.51v54.03c0,2.48-2.01,4.5-4.5,4.5L89.15,93.49z
			 M7.58,38.42v50.59c-0.01,0.28,0.1,0.55,0.3,0.75c0.2,0.2,0.47,0.3,0.75,0.3h80.52c0.57,0,1.03-0.45,1.03-1.02
			c0-0.01,0-0.01,0-0.02V38.42H7.58z"/>
		<rect x="11.02" y="41.86" class="st1" width="75.71" height="44.75"/>
		<path class="st2" d="M17.56,13.3H5.86v7.57c2.28,0.14,4.01,2.09,3.87,4.37c-0.13,2.08-1.79,3.75-3.87,3.87v7.61h11.7L29.24,25
			L17.56,13.3z"/>
		<polygon class="st0" points="18.27,38.42 4.14,38.42 4.14,29.13 7.58,29.13 7.58,34.98 16.85,34.98 26.82,25 16.85,15.02 
			7.58,15.02 7.58,20.87 4.14,20.87 4.14,11.57 18.27,11.57 31.7,25 		"/>
		<polygon class="st0" points="93.62,36.7 90.18,36.7 90.18,26.72 29.26,26.72 29.26,23.28 93.62,23.28 		"/>
		
			<rect x="33.39" y="22.57" transform="matrix(0.7071 -0.7071 0.7071 0.7071 -11.5295 33.8603)" class="st0" width="3.44" height="16.55"/>
		
			<rect x="46.12" y="22.58" transform="matrix(0.7071 -0.7071 0.7071 0.7071 -7.8023 42.868)" class="st0" width="3.44" height="16.55"/>
		
			<rect x="58.86" y="22.57" transform="matrix(0.7071 -0.7071 0.7071 0.7071 -4.0698 51.8735)" class="st0" width="3.44" height="16.55"/>
		
			<rect x="71.59" y="22.57" transform="matrix(0.7071 -0.7071 0.7071 0.7071 -0.3394 60.8737)" class="st0" width="3.44" height="16.55"/>
		
			<rect x="84.33" y="22.58" transform="matrix(0.7071 -0.7071 0.7071 0.7071 3.3878 69.8815)" class="st0" width="3.44" height="16.55"/>
		<polygon class="st0" points="28.08,25.26 27.56,21.86 90.85,12.09 89.6,3.93 17.82,15 17.3,11.59 92.47,0 94.77,14.97 		"/>
		
			<rect x="27.53" y="14.68" transform="matrix(0.591 -0.8067 0.8067 0.591 1.4086 35.5872)" class="st0" width="16.55" height="3.44"/>
		
			<rect x="40.12" y="12.74" transform="matrix(0.5912 -0.8065 0.8065 0.5912 8.1198 44.9407)" class="st0" width="16.55" height="3.44"/>
		<rect x="52.7" y="10.8" transform="matrix(0.591 -0.8067 0.8067 0.591 14.833 54.305)" class="st0" width="16.55" height="3.44"/>
		
			<rect x="65.28" y="8.86" transform="matrix(0.591 -0.8067 0.8067 0.591 21.5494 63.6633)" class="st0" width="16.55" height="3.44"/>
		
			<rect x="77.88" y="6.93" transform="matrix(0.5912 -0.8065 0.8065 0.5912 28.2479 73.0186)" class="st0" width="16.55" height="3.44"/>
		<path class="st0" d="M5.86,30.85C2.63,30.85,0,28.24,0,25s2.61-5.86,5.85-5.86s5.86,2.61,5.86,5.85c0,0,0,0,0,0.01
			C11.71,28.23,9.09,30.85,5.86,30.85z M5.86,22.61C4.53,22.59,3.44,23.66,3.43,25c-0.01,1.33,1.06,2.42,2.39,2.44
			c1.33,0.01,2.42-1.06,2.44-2.39c0-0.01,0-0.03,0-0.04c0-1.32-1.07-2.39-2.39-2.41V22.61z"/>
		<rect x="9.99" y="23.28" class="st0" width="5.51" height="3.44"/>
		<rect x="16.18" y="78" class="st3" width="65.39" height="3.44"/>
		<rect x="16.18" y="47.02" class="st3" width="65.39" height="3.44"/>
		<rect x="16.18" y="57.35" class="st3" width="65.39" height="3.44"/>
		<rect x="58.06" y="59.07" class="st3" width="3.44" height="20.65"/>
		<rect x="47.16" y="48.75" class="st3" width="3.44" height="10.33"/>
		<rect x="36.26" y="59.07" class="st3" width="3.44" height="20.65"/>
	</g>
</g>
</svg>
