<?xml version="1.0" encoding="utf-8"?>
<!-- Generator: Adobe Illustrator 24.0.1, SVG Export Plug-In . SVG Version: 6.00 Build 0)  -->
<svg version="1.1" id="Layer_1" xmlns="http://www.w3.org/2000/svg" xmlns:xlink="http://www.w3.org/1999/xlink" x="0px" y="0px"
	 viewBox="0 0 86.11 96.44" style="enable-background:new 0 0 86.11 96.44;" xml:space="preserve">
<style type="text/css">
	.st0{fill:#56BBE8;}
	.st1{fill:#9D6BBD;}
	.st2{fill:#2B2D71;}
</style>
<g>
	<g id="Layer_191_7_">
		<polygon class="st0" points="79.21,58.55 79.21,24.11 72.33,24.11 72.33,17.22 65.44,17.22 65.44,37.89 58.55,37.89 58.55,53.38 
			70.6,53.38 70.6,67.16 77.5,67.16 77.5,96.44 86.11,96.44 86.11,58.55 		"/>
		<polygon class="st1" points="20.66,44.77 20.66,37.89 13.78,37.89 13.78,31 6.88,31 6.88,44.77 6.88,72.33 0,72.33 0,96.44 
			8.61,96.44 8.61,67.16 15.49,67.16 15.49,53.38 27.55,53.38 27.55,44.77 		"/>
		<rect x="41.33" y="10.33" class="st2" width="3.44" height="3.44"/>
		<rect x="41.33" y="17.22" class="st2" width="3.44" height="3.44"/>
		<rect x="41.33" y="24.11" class="st2" width="3.44" height="3.44"/>
		<rect x="41.33" y="31" class="st2" width="3.44" height="3.44"/>
		<rect x="41.33" y="37.89" class="st2" width="3.44" height="3.44"/>
		<rect x="41.33" y="44.77" class="st2" width="3.44" height="3.44"/>
		<rect x="41.33" y="51.67" class="st2" width="3.44" height="3.44"/>
		<rect x="41.33" y="58.55" class="st2" width="3.44" height="3.44"/>
		<rect x="41.33" y="65.44" class="st2" width="3.44" height="3.44"/>
		<rect x="41.33" y="72.33" class="st2" width="3.44" height="3.44"/>
		<rect x="41.33" y="79.21" class="st2" width="3.44" height="3.44"/>
		<rect x="41.33" y="86.11" class="st2" width="3.44" height="3.44"/>
		<rect x="48.22" y="24.11" class="st2" width="3.44" height="3.44"/>
		<rect x="48.22" y="31" class="st2" width="3.44" height="3.44"/>
		<rect x="48.22" y="37.89" class="st2" width="3.44" height="3.44"/>
		<rect x="48.22" y="44.77" class="st2" width="3.44" height="3.44"/>
		<rect x="48.22" y="51.67" class="st2" width="3.44" height="3.44"/>
		<rect x="48.22" y="58.55" class="st2" width="3.44" height="3.44"/>
		<rect x="48.22" y="65.44" class="st2" width="3.44" height="3.44"/>
		<rect x="48.22" y="72.33" class="st2" width="3.44" height="3.44"/>
		<rect x="48.22" y="79.21" class="st2" width="3.44" height="3.44"/>
		<rect x="48.22" y="86.11" class="st2" width="3.44" height="3.44"/>
		<rect x="34.44" y="24.11" class="st2" width="3.44" height="3.44"/>
		<rect x="34.44" y="31" class="st2" width="3.44" height="3.44"/>
		<rect x="34.44" y="37.89" class="st2" width="3.44" height="3.44"/>
		<rect x="34.44" y="44.77" class="st2" width="3.44" height="3.44"/>
		<rect x="34.44" y="51.67" class="st2" width="3.44" height="3.44"/>
		<rect x="34.44" y="58.55" class="st2" width="3.44" height="3.44"/>
		<rect x="34.44" y="65.44" class="st2" width="3.44" height="3.44"/>
		<rect x="34.44" y="72.33" class="st2" width="3.44" height="3.44"/>
		<rect x="34.44" y="79.21" class="st2" width="3.44" height="3.44"/>
		<rect x="34.44" y="86.11" class="st2" width="3.44" height="3.44"/>
		<path class="st2" d="M58.55,96.44h-31V17.25h6.88V3.44h17.25v13.81h6.89L58.55,96.44z M31,93h24.11V20.67h-6.89V6.89H37.89v13.78
			H31V93z"/>
		<rect x="41.33" class="st2" width="3.44" height="5.17"/>
		<rect x="61.99" y="58.55" class="st2" width="3.44" height="3.44"/>
		<rect x="61.99" y="65.44" class="st2" width="3.44" height="3.44"/>
		<rect x="61.99" y="72.33" class="st2" width="3.44" height="3.44"/>
		<rect x="61.99" y="79.21" class="st2" width="3.44" height="3.44"/>
		<rect x="61.99" y="86.11" class="st2" width="3.44" height="3.44"/>
		<rect x="68.88" y="72.33" class="st2" width="3.44" height="3.44"/>
		<rect x="68.88" y="79.21" class="st2" width="3.44" height="3.44"/>
		<rect x="68.88" y="86.11" class="st2" width="3.44" height="3.44"/>
		<path class="st2" d="M79.21,96.44h-24.1V51.67h17.25v13.77h6.88L79.21,96.44z M58.55,93H75.8V68.89h-6.92V55.11H58.55V93z"/>
		<rect x="20.66" y="58.55" class="st2" width="3.44" height="3.44"/>
		<rect x="20.66" y="65.44" class="st2" width="3.44" height="3.44"/>
		<rect x="20.66" y="72.33" class="st2" width="3.44" height="3.44"/>
		<rect x="20.66" y="79.21" class="st2" width="3.44" height="3.44"/>
		<rect x="20.66" y="86.11" class="st2" width="3.44" height="3.44"/>
		<rect x="13.78" y="72.33" class="st2" width="3.44" height="3.44"/>
		<rect x="13.78" y="79.21" class="st2" width="3.44" height="3.44"/>
		<rect x="13.78" y="86.11" class="st2" width="3.44" height="3.44"/>
		<path class="st2" d="M31,96.44H6.88v-31h6.89V51.67h17.25L31,96.44z M10.33,93h17.25V55.11H17.25v13.78h-6.91V93z"/>
	</g>
</g>
</svg>
