<?xml version="1.0" encoding="utf-8"?>
<!-- Generator: Adobe Illustrator 24.0.1, SVG Export Plug-In . SVG Version: 6.00 Build 0)  -->
<svg version="1.1" id="Layer_1" xmlns="http://www.w3.org/2000/svg" xmlns:xlink="http://www.w3.org/1999/xlink" x="0px" y="0px"
	 viewBox="0 0 105.66 89.81" style="enable-background:new 0 0 105.66 89.81;" xml:space="preserve">
<style type="text/css">
	.st0{fill:#2B2D71;}
	.st1{fill:#56BBE8;}
	.st2{fill:#9D6BBD;}
</style>
<g>
	<path class="st0" d="M21.64,89.02H8.4c-0.27,0-0.53-0.11-0.73-0.3c-0.19-0.19-0.3-0.45-0.3-0.73l0.03-6.29
		c-6.84-0.5-7.34-1.27-7.34-8.58c0-5.08,0-10.16,0.01-15.24C0.09,43.32,0.1,28.26,0,13.45C-0.03,9.62,1.51,7.4,5.12,6.03
		C26.27-2.02,47.7-2.01,68.83,6.05c3.66,1.39,5.14,3.64,4.96,7.52c-0.16,3.52-0.11,6.83-0.05,10.33c0.03,1.82,0.06,3.71,0.06,5.66
		c0,0.57-0.46,1.02-1.02,1.02H64.8c-0.57,0-1.02-0.46-1.02-1.02V20.5c0.06-1.08-0.05-1.72-0.34-2.02c-0.28-0.3-0.93-0.45-1.93-0.44
		c-15.86,0.1-32.42,0.1-49.22,0c-0.94,0-1.53,0.12-1.79,0.38c-0.26,0.26-0.38,0.84-0.37,1.78c0.1,12.64,0.1,23.18-0.01,33.18
		c-0.01,0.94,0.13,1.57,0.42,1.85c0.3,0.3,0.96,0.43,2.06,0.41c4.72-0.09,9.34-0.07,14.23-0.05c1.92,0.01,3.86,0.01,5.81,0.01
		c0.57,0,1.02,0.46,1.02,1.02v23.92c0,0.57-0.46,1.02-1.02,1.02H22.6l0.06,6.42c0,0.27-0.1,0.54-0.3,0.73
		C22.18,88.91,21.91,89.02,21.64,89.02z M9.43,86.97h11.18l-0.06-6.42c0-0.27,0.1-0.54,0.3-0.73c0.19-0.19,0.45-0.3,0.73-0.3h10.05
		V57.65c-1.61,0-3.21-0.01-4.8-0.01c-4.88-0.02-9.49-0.03-14.19,0.05c-1.23,0.02-2.61-0.08-3.54-1.01
		c-0.72-0.71-1.04-1.77-1.03-3.33c0.11-9.98,0.11-20.51,0.01-33.14c-0.01-1.05,0.09-2.36,0.97-3.24c0.88-0.88,2.2-0.99,3.25-0.98
		c16.8,0.1,33.35,0.1,49.2,0c1.03-0.01,2.49,0.1,3.42,1.07c0.91,0.96,0.96,2.37,0.9,3.49l0,7.98h5.93c-0.01-1.57-0.03-3.11-0.06-4.6
		c-0.06-3.54-0.11-6.88,0.05-10.46c0.14-2.99-0.82-4.43-3.65-5.51C47.46,0.09,26.51,0.08,5.85,7.94c-2.82,1.07-3.82,2.51-3.8,5.5
		c0.1,14.82,0.09,29.88,0.07,44.45c0,5.08-0.01,10.16-0.01,15.24c0,3.21,0.03,4.92,0.64,5.58c0.64,0.69,2.58,0.81,5.52,1.01
		c0.46,0.03,1.04,0.35,1.19,0.88c0.06,0.21,0.05,0.43-0.01,0.62L9.43,86.97z M15,75.89c-0.02,0-0.04,0-0.06,0
		c-1.79-0.02-3.56-0.81-4.85-2.18c-1.31-1.38-2.01-3.22-1.92-5.03c0.17-3.67,3.31-6.59,6.98-6.52l0,0c1.91,0.04,3.66,0.79,4.92,2.13
		c1.25,1.33,1.9,3.1,1.82,5C21.72,72.94,18.64,75.89,15,75.89z M15.01,64.2c-2.54,0-4.68,2.03-4.8,4.57
		c-0.06,1.26,0.44,2.54,1.37,3.53c0.92,0.97,2.15,1.53,3.38,1.54c2.56,0.04,4.76-2.06,4.87-4.65c0.06-1.34-0.39-2.58-1.26-3.51
		c-0.88-0.93-2.11-1.46-3.47-1.48C15.07,64.2,15.04,64.2,15.01,64.2z"/>
	<g>
		<path class="st1" d="M93.27,89.81c-3.67,0-8.74,0-9.06,0l-1.02,0l-0.06-7.79H58.45v7.79H43.21l-0.03-1
			c-0.1-3.83-0.14-5.93-0.09-7.11c-6.8-0.5-7.29-1.32-7.29-8.85l0-2.04c0-1.53-0.01-3.07,0.01-4.6c0.05-4.94,1.72-6.62,6.64-6.65
			c7.23-0.04,14.58-0.03,21.68-0.02c2.89,0,5.78,0.01,8.68,0.01l7.5,0c6.11,0,12.21-0.01,18.32,0.01c5.41,0.02,6.99,1.58,7.02,6.94
			c0.02,2.97,0.02,5.72,0,8.39c-0.04,5.31-1.36,6.64-6.72,6.78c-0.29,0.01-0.59,0.03-0.91,0.05v8.08L97,89.8
			C96.7,89.8,95.17,89.81,93.27,89.81z M85.22,87.75c2.38,0,8.31,0,10.74,0v-7.97l1.68-0.1c0.45-0.03,0.84-0.06,1.23-0.07
			c4.26-0.11,4.7-0.56,4.73-4.75c0.02-2.66,0.02-5.4,0-8.36c-0.03-4.21-0.72-4.89-4.98-4.91c-6.1-0.02-12.21-0.02-18.31-0.01l-7.5,0
			c-2.89,0-5.79,0-8.68-0.01c-7.1-0.01-14.45-0.01-21.67,0.02c-3.79,0.02-4.56,0.8-4.6,4.62c-0.02,1.53-0.01,3.05-0.01,4.58l0,2.04
			c0,3.35,0.03,5.13,0.67,5.83c0.63,0.69,2.33,0.83,5.55,1.04c0.01,0,0.01,0,0.02,0l0.08-0.05l0.18,0.09
			c0.39,0.11,0.79,0.38,0.92,0.81l0.21,0.67l-0.31,0.25c-0.04,1.02-0.01,3.66,0.05,6.27h11.2v-7.79h28.76L85.22,87.75z M44.64,79.92
			l0.05,0.02C44.67,79.93,44.66,79.92,44.64,79.92z"/>
	</g>
	<g>
		<path class="st1" d="M99.97,53.41H41.45l0.52-1.39c0.33-0.88,0.65-1.74,0.96-2.6c0.8-2.21,1.56-4.3,2.5-6.36
			c0.57-1.26,2.02-2.27,3.15-2.63c14.52-4.57,29.36-4.6,44.11-0.1c1.38,0.42,2.86,1.74,3.52,3.14c0.89,1.88,1.58,3.84,2.3,5.91
			c0.3,0.86,0.61,1.74,0.94,2.64L99.97,53.41z M44.4,51.36h52.64c-0.16-0.44-0.31-0.87-0.45-1.3c-0.7-2.02-1.37-3.92-2.22-5.7
			c-0.42-0.88-1.44-1.8-2.27-2.06c-14.35-4.38-28.79-4.35-42.9,0.09c-0.76,0.24-1.64,0.94-1.91,1.53c-0.91,1.98-1.65,4.03-2.44,6.21
			C44.7,50.53,44.55,50.94,44.4,51.36z"/>
	</g>
	<g>
		<path class="st2" d="M46.85,77.61c-0.02,0-0.04,0-0.06,0c-1.79-0.02-3.56-0.81-4.85-2.18c-1.31-1.38-2.01-3.22-1.92-5.03
			c0.17-3.67,3.31-6.59,6.98-6.52c1.91,0.04,3.66,0.79,4.92,2.13c1.25,1.33,1.9,3.1,1.82,5C53.57,74.66,50.49,77.61,46.85,77.61z
			 M46.86,65.92c-2.54,0-4.68,2.03-4.8,4.57c-0.06,1.26,0.44,2.54,1.37,3.53c0.92,0.97,2.15,1.53,3.38,1.54
			c2.57,0.01,4.76-2.06,4.87-4.65c0.06-1.34-0.39-2.58-1.26-3.51c-0.88-0.93-2.11-1.46-3.47-1.48c0,0,0,0,0,0
			C46.92,65.92,46.89,65.92,46.86,65.92z"/>
	</g>
	<g>
		<path class="st2" d="M94.65,77.61c-0.02,0-0.04,0-0.06,0c-1.79-0.02-3.56-0.81-4.85-2.18c-1.31-1.38-2.01-3.22-1.92-5.03
			c0.17-3.67,3.31-6.59,6.98-6.52c1.91,0.04,3.66,0.79,4.92,2.13c1.25,1.33,1.9,3.1,1.82,5C101.37,74.66,98.29,77.61,94.65,77.61z
			 M94.66,65.92c-2.54,0-4.68,2.03-4.8,4.57c-0.06,1.26,0.44,2.54,1.37,3.53c0.92,0.97,2.15,1.53,3.38,1.54
			c2.58,0.02,4.76-2.06,4.87-4.65c0.06-1.34-0.39-2.58-1.26-3.51c-0.88-0.93-2.11-1.46-3.47-1.48c0,0,0,0,0,0
			C94.72,65.92,94.69,65.92,94.66,65.92z"/>
	</g>
</g>
</svg>
