<?xml version="1.0" encoding="utf-8"?>
<!-- Generator: Adobe Illustrator 24.0.1, SVG Export Plug-In . SVG Version: 6.00 Build 0)  -->
<svg version="1.1" id="Layer_1" xmlns="http://www.w3.org/2000/svg" xmlns:xlink="http://www.w3.org/1999/xlink" x="0px" y="0px"
	 viewBox="0 0 88.25 88.82" style="enable-background:new 0 0 88.25 88.82;" xml:space="preserve">
<style type="text/css">
	.st0{fill:#2B2D71;}
	.st1{fill:#56BBE8;}
	.st2{fill:#9D6BBD;}
</style>
<g>
	<path class="st0" d="M1068.31,524.99c-0.29-0.26-0.68-0.46-0.85-0.78c-0.5-0.91,0.1-1.8,1.19-1.81c4.02-0.01,8.04-0.03,12.06,0.01
		c0.85,0.01,1.19-0.18,1.35-1.1c1.21-6.94,2.51-13.87,3.77-20.8c1.33-7.3,2.67-14.61,4-21.91c0.47-2.57,0.96-5.13,1.38-7.7
		c0.16-0.96,0.73-1.26,1.56-1.29c1.01-0.03,2.02-0.01,3.09-0.01c-0.66-1.02-1.24-1.94-1.88-2.93c-1.25,0.89-2.65,1.03-3.95,0.18
		c-0.75-0.49-1.49-1.19-1.89-1.97c-1.48-2.9-1.18-5.75,0.74-8.36c1.45-1.97,4.4-1.64,6.02,0.6c0.24,0.32,0.43,0.68,0.79,1.27
		c0.55-1.88,0.16-3.58,0.31-5.38c-0.43,0-0.77,0.02-1.1,0c-0.77-0.06-1.23-0.56-1.22-1.31c0.01-0.8,0.4-1.26,1.25-1.2
		c0.95,0.07,1.17-0.34,1.06-1.17c-0.04-0.34-0.01-0.69-0.01-1.17c-1.13,0-2.17,0.01-3.21,0c-1.09-0.01-1.53-0.39-1.52-1.24
		c0.01-0.81,0.54-1.28,1.52-1.3c1.02-0.02,2.04,0,3.13,0c0-0.73,0-1.41,0-2.15c-0.93-0.16-2.29,0.2-2.21-1.44
		c0.07-1.46,1.3-1.08,2.29-1.21c0-1.1-0.01-2.17,0-3.24c0.01-0.93,0.46-1.45,1.25-1.45c0.89,0,1.28,0.44,1.29,1.47
		c0.01,1.04,0,2.09,0,3.2c0.99,0.17,2.39-0.24,2.34,1.38c-0.05,1.47-1.29,1.18-2.28,1.25c0,0.71,0,1.37,0,2.18
		c1.07,0,2.13-0.02,3.19,0.01c1.03,0.03,1.47,0.45,1.47,1.31c0,0.78-0.4,1.2-1.16,1.22c-0.87,0.03-1.75,0.07-2.62-0.01
		c-0.81-0.07-1.05,0.25-0.94,0.99c0.02,0.14,0.02,0.29,0,0.44c-0.09,0.67,0.15,0.93,0.86,0.91c0.98-0.04,1.57,0.49,1.54,1.24
		c-0.03,0.79-0.59,1.25-1.56,1.28c-0.23,0.01-0.46,0-0.77,0c0,0.96,0,1.87,0,2.9c3.04-1.22,5.89-0.82,8.49,1.05
		c1.58,1.14,2.61,2.71,3.13,4.6c1.21,4.4-1.66,9.44-6.64,10.55c0.25,1.42,0.5,2.84,0.76,4.26c1.15,6.31,2.29,12.61,3.44,18.92
		c0.97,5.31,1.94,10.61,2.91,15.92c0.62,3.42,1.24,6.84,1.83,10.27c0.11,0.66,0.35,0.91,1.07,0.91c3.96-0.04,7.92-0.01,11.88-0.02
		c0.72,0,1.46-0.03,1.71,0.84c0.24,0.87-0.19,1.43-0.98,1.77C1106.91,524.99,1087.61,524.99,1068.31,524.99z M1085.37,522.31
		c8.01,0,15.8,0,23.81,0c-4.09-3.29-7.99-6.43-11.91-9.57C1093.32,515.92,1089.43,519.04,1085.37,522.31z M1102.03,469.6
		c3.12,0.1,6.07-2.57,5.94-5.97c-0.14-3.65-2.86-5.84-5.75-5.83c-3.26,0.01-6.06,2.38-6.08,5.77
		C1096.13,467.03,1098.91,469.74,1102.03,469.6z M1089.2,502.98c2.73,2.2,5.38,4.34,8.08,6.52c2.7-2.18,5.35-4.32,8.08-6.51
		c-2.75-2.37-5.4-4.65-8.08-6.96C1094.57,498.36,1091.91,500.64,1089.2,502.98z M1087.58,504.95c-0.88,4.85-1.73,9.51-2.58,14.17
		c0.07,0.03,0.15,0.05,0.22,0.08c3.31-2.67,6.63-5.34,10.04-8.09C1092.68,509.03,1090.2,507.04,1087.58,504.95z M1109.6,519.39
		c-0.89-4.93-1.74-9.59-2.62-14.44c-2.64,2.11-5.12,4.1-7.69,6.16C1102.7,513.86,1106.04,516.54,1109.6,519.39z M1097.28,492.68
		c1.89-1.63,3.74-3.24,5.67-4.9c-1.94-1.87-3.78-3.64-5.76-5.55c-1.82,1.96-3.57,3.84-5.34,5.76
		C1093.55,489.47,1095.4,491.06,1097.28,492.68z M1100.99,472.15c-1.3,0-2.52,0-3.73,0c-1.24,0-2.48,0-3.69,0
		c-0.52,2.52-0.52,2.52,1.18,4.21c0.82,0.81,1.66,1.59,2.54,2.43c1.38-1.33,2.68-2.57,3.96-3.83c0.13-0.13,0.18-0.43,0.15-0.63
		C1101.3,473.64,1101.15,472.96,1100.99,472.15z M1090.29,490c-0.63,3.45-1.21,6.68-1.79,9.9c0.07,0.04,0.15,0.09,0.22,0.13
		c2.18-1.87,4.36-3.75,6.61-5.68C1093.67,492.91,1092.07,491.53,1090.29,490z M1099.23,494.36c2.27,1.95,4.49,3.86,6.9,5.93
		c-0.65-3.56-1.25-6.84-1.88-10.27C1102.5,491.52,1100.91,492.9,1099.23,494.36z M1093.74,461.64c-0.24-1.05-0.32-1.94-0.67-2.71
		c-0.22-0.48-0.82-1.02-1.3-1.07c-0.43-0.04-1.11,0.44-1.35,0.88c-0.95,1.75-0.89,3.58,0.05,5.33c0.56,1.04,1.7,1.1,2.3,0.08
		C1093.25,463.37,1093.46,462.42,1093.74,461.64z M1091.3,484.51c1.43-1.49,2.68-2.78,3.64-3.79c-0.79-0.86-1.63-1.78-2.47-2.7
		C1092.1,480.08,1091.72,482.17,1091.3,484.51z M1102.05,477.87c-0.92,1.01-1.77,1.95-2.68,2.95c1.08,1.03,2.35,2.24,3.62,3.45
		c0.07-0.03,0.14-0.07,0.2-0.1C1102.81,482.09,1102.44,480.02,1102.05,477.87z"/>
	<path class="st1" d="M1126.38,435.43c2.07,1.38,3.48,3.38,4.94,5.31c3.89,5.19,6.48,10.99,7.72,17.36c0.91,4.68,1,9.39,0.29,14.13
		c-1.12,7.49-4.02,14.2-8.62,20.18c-0.96,1.24-2.03,2.39-3.1,3.54c-0.99,1.07-1.98,1.14-2.88,0.31c-0.94-0.87-0.93-1.92,0.07-2.95
		c2.32-2.39,4.32-5.02,5.98-7.91c2.44-4.25,4.04-8.78,4.74-13.63c0.91-6.39,0.27-12.62-1.91-18.7c-1.78-4.96-4.47-9.36-8.05-13.23
		c-0.28-0.3-0.51-0.65-0.82-0.9c-1.31-1.04-0.56-3.02,0.85-3.33c0.1-0.02,0.18-0.12,0.27-0.18
		C1126.03,435.43,1126.21,435.43,1126.38,435.43z"/>
	<path class="st1" d="M1068.66,435.43c0.06,0.06,0.11,0.14,0.18,0.16c1.83,0.62,2.2,2.05,0.91,3.46c-0.94,1.03-1.9,2.05-2.76,3.15
		c-4.08,5.22-6.75,11.06-7.83,17.62c-1.38,8.35-0.07,16.29,3.69,23.85c1.78,3.56,4.09,6.76,6.88,9.6c1.02,1.04,1.07,2.03,0.12,2.95
		c-0.87,0.85-1.92,0.79-2.89-0.24c-6.11-6.41-10.09-13.92-11.57-22.69c-1.86-11.1,0.47-21.34,6.57-30.72
		c1.42-2.18,3.23-4.1,4.92-6.1c0.37-0.44,0.95-0.7,1.43-1.05C1068.43,435.43,1068.55,435.43,1068.66,435.43z"/>
	<path class="st1" d="M1128.49,466.09c-0.11,8.47-3.04,15.8-8.9,21.94c-0.99,1.04-2,1.08-2.88,0.22c-0.85-0.83-0.82-1.89,0.13-2.91
		c3.38-3.61,5.88-7.73,7-12.57c2.26-9.77-0.18-18.32-6.95-25.68c-1.04-1.13-1.04-2.46,0.06-3.23c0.84-0.58,1.71-0.48,2.51,0.31
		c3.01,3,5.27,6.5,6.84,10.43C1127.76,458.29,1128.6,462.1,1128.49,466.09z"/>
	<path class="st1" d="M1078.6,445.66c-0.33,0.49-0.59,1.03-0.99,1.45c-2.92,3.09-5.08,6.63-6.38,10.68
		c-2.07,6.42-1.7,12.74,0.83,18.96c1.32,3.25,3.28,6.07,5.67,8.61c0.93,0.99,0.97,2.08,0.09,2.9c-0.91,0.85-1.94,0.78-2.89-0.23
		c-2.59-2.75-4.69-5.83-6.23-9.29c-2.08-4.66-2.94-9.54-2.58-14.61c0.45-6.3,2.59-11.99,6.44-17.01c0.8-1.04,1.69-2,2.57-2.97
		c0.55-0.61,1.25-0.84,2.05-0.49C1077.98,444.02,1078.48,444.61,1078.6,445.66z"/>
	<path class="st1" d="M1084.33,451.39c1.03,0.19,1.65,0.61,1.98,1.4c0.35,0.82,0.05,1.48-0.51,2.06c-2.13,2.21-3.57,4.83-4.18,7.82
		c-1.11,5.48,0.2,10.36,3.96,14.53c1.06,1.18,1.16,2.09,0.23,3.04c-0.8,0.83-1.84,0.84-2.68-0.02c-3.14-3.19-4.98-7.02-5.54-11.47
		c-0.61-4.83,0.35-9.31,2.97-13.41c0.73-1.14,1.63-2.19,2.53-3.21C1083.44,451.77,1084,451.59,1084.33,451.39z"/>
	<path class="st1" d="M1117.22,466.27c-0.11,5.29-2,9.82-5.5,13.71c-0.53,0.59-1.14,1.06-1.98,0.84c-0.84-0.22-1.52-0.77-1.56-1.67
		c-0.02-0.54,0.2-1.22,0.56-1.62c1.74-1.96,3.15-4.11,3.85-6.65c1.66-5.96,0.42-11.26-3.72-15.86c-0.6-0.67-1.01-1.36-0.62-2.27
		c0.6-1.4,2.19-1.71,3.25-0.6c2.68,2.79,4.45,6.09,5.19,9.89C1116.98,463.43,1117.06,464.86,1117.22,466.27z"/>
</g>
<g>
	<g>
		<path class="st0" d="M82.3,48.86c-1.45,0-2.84,0-4.3,0c0-0.97,0-1.9,0-2.94c1.4,0,2.83,0,4.31,0c0-1.01,0-1.93,0-2.94
			c-1.41,0-2.84,0-4.33,0c0-1.04,0-1.97,0-2.98c1.42,0,2.83,0,4.31,0c0-8.4,0-16.74,0-25.14c-15.73,0-31.46,0-47.27,0
			c0,2.91,0,5.8,0,8.75c-1,0-1.94,0-2.98,0c0-2.9,0-5.81,0-8.79c-1.01,0-1.93,0-2.91,0c0-1,0-1.94,0-2.94c0.92,0,1.83,0,2.82,0
			c0-1,0-1.94,0-2.98c-0.91,0-1.85,0-2.83,0c0-1.01,0-1.93,0-2.94c3.38,0,6.79,0,10.31,0c0-1.38,0-2.66,0-3.95
			C39.45,0.46,39.91,0,41.5,0c2.62,0,5.24,0,7.86,0c1.44,0,1.92,0.5,1.92,1.96c0,1.29,0,2.58,0,3.93c12.34,0,24.6,0,36.94,0
			c0,1,0,1.94,0,2.97c-0.93,0-1.86,0-2.84,0c0,1.01,0,1.93,0,2.94c0.93,0,1.87,0,2.86,0c0,1.04,0,1.97,0,2.98c-0.95,0-1.86,0-2.84,0
			c0,8.4,0,16.74,0,25.15c0.92,0,1.83,0,2.82,0c0,1,0,1.94,0,2.98c-0.91,0-1.85,0-2.84,0c0,1.01,0,1.93,0,2.94c0.92,0,1.86,0,2.85,0
			c0,1.04,0,1.97,0,2.98c-0.94,0-1.85,0-2.83,0c0,8.9,0,17.73,0,26.66c0.93,0,1.87,0,2.85,0c0,1.01,0,1.93,0,2.94
			c-0.94,0-1.87,0-2.86,0c0,1.01,0,1.93,0,2.94c0.91,0,1.84,0,2.84,0c0,1.04,0,1.97,0,2.96c-3.39,0-6.77,0-10.23,0
			c0-0.92,0-1.85,0-2.89c1.41,0,2.84,0,4.32,0c0-1.01,0-1.93,0-2.94c-1.42,0-2.85,0-4.33,0c0-1.04,0-1.97,0-2.98
			c1.44,0,2.84,0,4.32,0C82.3,66.62,82.3,57.79,82.3,48.86z M35.05,11.78c15.8,0,31.54,0,47.25,0c0-1,0-1.93,0-2.85
			c-15.78,0-31.5,0-47.25,0C35.05,9.89,35.05,10.8,35.05,11.78z M48.28,3.02c-1.98,0-3.9,0-5.81,0c0,1,0,1.93,0,2.85
			c1.97,0,3.86,0,5.81,0C48.28,4.92,48.28,4.01,48.28,3.02z"/>
		<path class="st0" d="M14.03,55.97c-0.85-0.9-1.47-1.57-2.29-2.44c0.63-0.57,1.37-1.16,2.02-1.85c0.28-0.3,0.47-0.77,0.5-1.18
			c0.07-1.01,0.02-2.02,0.02-3.1c-1.68,0-3.28-0.09-4.86,0.03c-1.49,0.11-2.53,1.44-2.54,3.04c-0.01,4.19-0.02,8.39,0.01,12.58
			c0.01,0.87-0.26,1.52-0.88,2.12c-1.33,1.28-2.62,2.6-3.96,3.95C1.36,68.37,0.71,67.69,0,66.93c1.08-1.07,2.24-2.17,3.33-3.35
			c0.31-0.34,0.56-0.89,0.56-1.34c0.04-3.85,0.02-7.71,0.03-11.56c0.01-3.76,2.5-6.26,6.25-6.27c1.32,0,2.65,0,4.11,0
			c0-0.37,0-0.69,0-1.02c0-3.51-0.01-7.03,0-10.54c0.01-3.69,2.53-6.2,6.23-6.2c8.66-0.01,17.33-0.01,25.99,0
			c3.75,0,6.26,2.51,6.26,6.27c0,16.56,0.01,33.11,0,49.67c0,3.7-2.52,6.22-6.21,6.23c-8.69,0.01-17.39,0.01-26.08,0
			c-3.64,0-6.17-2.53-6.19-6.15c-0.01-2.09,0-4.19,0-6.48c-1.15,1.22-2.19,2.31-3.25,3.44c-0.82-0.87-1.46-1.54-2.3-2.43
			c0.48-0.39,1.04-0.78,1.52-1.25c1.91-1.88,3.81-3.78,5.7-5.69c2.91-2.93,3.05-6.72,0.37-9.87c-0.77-0.9-0.76-1.57,0.08-2.42
			c2.08-2.1,4.19-4.18,6.27-6.29c0.77-0.78,0.88-1.59,0.35-2.32c-0.64-0.89-1.76-0.93-2.64-0.06c-1.93,1.91-3.85,3.83-5.75,5.76
			C14.39,55.3,14.25,55.63,14.03,55.97z M17.24,48.19c0.54-0.52,0.92-0.91,1.33-1.26c1.37-1.18,2.93-1.54,4.65-0.93
			c3.21,1.14,4.1,5.12,1.68,7.63c-1.84,1.91-3.75,3.75-5.61,5.6c3.23,4.85,2.02,10.35-1.64,13.55c-0.25,0.22-0.38,0.69-0.38,1.05
			c-0.03,2.87-0.02,5.74-0.02,8.6c0,2.26,1.16,3.42,3.41,3.42c8.57,0,17.15,0,25.72,0c2.28,0,3.44-1.14,3.44-3.39
			c0-16.5,0-33,0-49.49c0-2.19-1.17-3.36-3.37-3.36c-8.6,0-17.21,0-25.81,0c-2.2,0-3.38,1.17-3.38,3.35c0,4.75,0,9.5,0,14.25
			C17.24,47.47,17.24,47.73,17.24,48.19z"/>
		<path class="st1" d="M55.76,88.82c0-1.02,0-1.93,0-2.96c0.35,0,0.68,0,1,0c4.38,0,8.76,0,13.13,0c1.65,0,2.11-0.44,2.11-2.06
			c0-14.28,0-28.55,0-42.83c0-0.3,0-0.6,0-0.95c-1.36,0-2.64,0-4.02,0c-0.14,0.89-0.29,1.79-0.41,2.69
			c-0.1,0.76-0.49,1.29-1.24,1.42c-3.42,0.59-6.85,1.16-10.35,1.75c-0.17-0.98-0.32-1.88-0.5-2.91c3.09-0.52,6.14-1.04,9.29-1.57
			c0.32-2.12,0.63-4.25,0.95-6.37c0.13-0.85,0.24-1.71,0.38-2.56c0.14-0.89,0.67-1.37,1.57-1.37c1.91-0.01,3.82-0.02,5.73,0
			c0.98,0.01,1.51,0.58,1.56,1.57c0.01,0.22,0,0.43,0,0.65c0,16.8,0,33.61,0,50.41c0,3.35-1.72,5.09-5.05,5.09
			C65.24,88.82,60.55,88.82,55.76,88.82z M68.42,36.95c1.23,0,2.38,0,3.52,0c0-0.99,0-1.93,0-2.87c-1.05,0-2.03,0-3.08,0
			C68.72,35,68.58,35.9,68.42,36.95z"/>
		<path class="st2" d="M55.77,56.29c0-1.08,0-1.99,0-2.98c3.03,0,6.01-0.03,8.99,0.02c0.76,0.01,1.2,0.56,1.31,1.33
			c0.03,0.21,0.01,0.43,0.01,0.65c0,7.55,0,15.11,0,22.66c0,1.5-0.48,1.98-2,1.98c-2.74,0-5.48,0-8.29,0c0-0.98,0-1.91,0-2.95
			c2.41,0,4.83,0,7.29,0c0-6.93,0-13.77,0-20.7C60.67,56.29,58.25,56.29,55.77,56.29z"/>
		<path class="st2" d="M60.13,71.12c0,0.97,0,1.88,0,2.84c-0.95,0-1.86,0-2.85,0c0-0.91,0-1.84,0-2.84
			C58.18,71.12,59.11,71.12,60.13,71.12z"/>
		<path class="st2" d="M29.07,73.96c0-6.39,0-12.73,0-19.13c1,0,1.94,0,2.94,0c0,6.36,0,12.7,0,19.11c1,0,1.94,0,2.97,0
			c0-4.87,0-9.75,0-14.68c1.01,0,1.93,0,2.94,0c0,4.87,0,9.75,0,14.69c1.04,0,1.97,0,2.97,0c0-9.33,0-18.63,0-28c1,0,1.94,0,2.97,0
			c0,9.32,0,18.64,0,28.03c1.01,0,1.93,0,2.91,0c0,1,0,1.94,0,2.93c-8.83,0-17.66,0-26.53,0c0-0.94,0-1.86,0-2.87
			c0.93,0,1.87,0,2.87,0c0-1.51,0-2.91,0-4.4c1,0,1.94,0,2.97,0c0,1.4,0,2.83,0,4.31C27.11,73.96,28.02,73.96,29.07,73.96z"/>
		<path class="st2" d="M32.01,32.64c0,0.95,0,1.86,0,2.83c-0.96,0-1.9,0-2.88,0c0-0.93,0-1.84,0-2.83
			C30.04,32.64,30.97,32.64,32.01,32.64z"/>
		<path class="st2" d="M35.06,32.58c0.98,0,1.87,0,2.83,0c0,0.95,0,1.88,0,2.88c-0.91,0-1.84,0-2.83,0
			C35.06,34.53,35.06,33.6,35.06,32.58z"/>
	</g>
	<path class="st2" d="M34.96,79.99c0,0.94,0,1.85,0,2.84c-0.92,0-1.86,0-2.85,0c0-0.92,0-1.85,0-2.84
		C33.04,79.99,33.98,79.99,34.96,79.99z"/>
</g>
</svg>
