<?xml version="1.0" encoding="utf-8"?>
<!-- Generator: Adobe Illustrator 24.0.1, SVG Export Plug-In . SVG Version: 6.00 Build 0)  -->
<svg version="1.1" id="Layer_1" xmlns="http://www.w3.org/2000/svg" xmlns:xlink="http://www.w3.org/1999/xlink" x="0px" y="0px"
	 viewBox="0 0 95.07 95.07" style="enable-background:new 0 0 95.07 95.07;" xml:space="preserve">
<style type="text/css">
	.st0{fill:#2B2D71;}
	.st1{fill:#56BBE8;}
	.st2{fill:#9D6BBD;}
	.st3{fill:#FFFFFF;}
</style>
<g>
	<path class="st0" d="M51.25,0c2.54,1.12,5.06,2.25,7.61,3.35c8.34,3.59,16.69,7.16,25.03,10.74c0.14,0.06,0.28,0.13,0.43,0.18
		c0.73,0.27,1.23,0.76,1.24,1.56c0.01,0.81-0.5,1.29-1.21,1.59c-2.44,1.04-4.87,2.13-7.33,3.11c-0.77,0.31-0.98,0.71-0.96,1.51
		c0.05,2.75-0.08,5.51,0.05,8.26c0.15,3.14-1.18,5.49-3.49,7.41c-3.43,2.86-7.47,4.45-11.75,5.44c-9.42,2.18-18.6,1.55-27.45-2.51
		c-2.4-1.1-4.59-2.57-6.29-4.65c-1.18-1.44-1.79-3.06-1.77-4.95c0.04-3.06-0.01-6.13,0.02-9.19c0.01-0.64-0.16-1-0.79-1.25
		c-1.81-0.72-3.58-1.51-5.5-2.32c-0.03,0.35-0.08,0.61-0.08,0.86c0,3.59,0,7.18-0.01,10.77c0,0.53,0.12,0.8,0.67,1.02
		c2.61,1.02,4.09,3.24,4.1,6.04c0.01,1.89,0.01,3.77,0,5.66c-0.02,1.97-1.26,3.27-3.23,3.31c-2.07,0.04-4.15,0.04-6.22,0
		c-1.97-0.04-3.18-1.33-3.2-3.32c-0.02-1.89-0.02-3.77,0-5.66c0.03-2.91,1.43-4.93,4.1-6.02c0.57-0.23,0.62-0.55,0.62-1.04
		c-0.01-4.45,0.02-8.91-0.02-13.36c-0.01-1.22,0.46-1.92,1.59-2.4C28.04,9.59,38.65,5.03,49.27,0.48c0.3-0.13,0.58-0.32,0.87-0.48
		C50.51,0,50.88,0,51.25,0z M25.38,14.1c0.02,0.08,0.04,0.17,0.06,0.25c0.34,0,0.67,0,1.01,0c7.86,0,15.71,0,23.57,0
		c0.28,0,0.56-0.03,0.83,0.01c0.77,0.1,1.24,0.57,1.33,1.33c0.09,0.77-0.3,1.33-1.03,1.55c-0.4,0.12-0.85,0.13-1.28,0.13
		c-7.76,0.01-15.53,0.01-23.29,0.01c-0.35,0-0.7,0-1.05,0c0.16,0.32,0.35,0.44,0.56,0.53c7.94,3.4,15.88,6.79,23.8,10.22
		c0.64,0.28,1.15,0.21,1.75-0.05c8.1-3.48,16.21-6.95,24.31-10.42c1.31-0.56,2.61-1.14,4.06-1.78c-0.38-0.21-0.59-0.34-0.81-0.44
		C70,11.49,60.79,7.55,51.58,3.59c-0.62-0.27-1.12-0.26-1.74,0c-6.32,2.73-12.65,5.43-18.97,8.14
		C29.03,12.51,27.21,13.31,25.38,14.1z M73,22.27c-0.45,0.16-0.77,0.25-1.07,0.38c-6.68,2.87-13.36,5.73-20.03,8.62
		c-0.83,0.36-1.56,0.36-2.39,0c-6.67-2.89-13.35-5.75-20.03-8.61c-0.3-0.13-0.61-0.2-1.02-0.33c0,2.78,0.09,5.44-0.03,8.09
		c-0.09,2.03,0.76,3.5,2.22,4.75c1.78,1.53,3.81,2.62,5.98,3.47c7.47,2.92,15.13,3.34,22.92,1.64c3.97-0.87,7.73-2.29,10.95-4.87
		c1.65-1.32,2.66-2.91,2.53-5.16C72.9,28.17,73,26.09,73,24.02C73,23.48,73,22.93,73,22.27z M20.61,42.77
		c0-2.18,0.08-4.31-0.03-6.42c-0.08-1.5-1.51-2.67-3.03-2.73c-1.5-0.05-3.11,1.08-3.2,2.52c-0.13,2.17-0.03,4.36-0.03,6.63
		C16.43,42.77,18.48,42.77,20.61,42.77z"/>
	<path class="st1" d="M12.26,95.07c-1.17-0.48-2.3-1.01-3.03-2.14c-1.25-1.94-0.96-4.54,0.73-6.1c0.58-0.53,1.51-0.54,2.11-0.02
		c0.6,0.53,0.7,1.33,0.25,2.01c-0.1,0.15-0.31,0.27-0.34,0.43c-0.12,0.57-0.41,1.26-0.21,1.71c0.2,0.45,0.89,0.86,1.42,0.94
		c0.97,0.14,1.97,0.02,2.96,0.02c5.97,0,11.94-0.02,17.91,0.02c0.84,0,1.49-0.23,2.08-0.8c0.75-0.72,1.54-1.41,2.37-2.17
		c-4.43-3.89-8.82-7.73-13.3-11.66c-0.97,0.86-1.93,1.72-2.89,2.57c-0.32,0.29-0.63,0.6-0.99,0.84c-0.7,0.48-1.58,0.32-2.06-0.34
		c-0.47-0.64-0.39-1.56,0.19-2.09c1.01-0.92,2.03-1.82,3.04-2.73c1.8-1.61,2.73-1.74,4.83-0.64c0.05-0.02,0.12-0.04,0.16-0.08
		c1.83-1.74,2.55-2.25,0.24-4.53c-1.21-1.2-2.32-2.49-3.47-3.74c-3.06-3.33-3.05-8.3,0.03-11.6c1.41-1.51,3.37-1.58,4.82-0.1
		c1.63,1.65,3.21,3.35,4.81,5.03c1.96,2.06,3.94,4.11,5.87,6.2c1.3,1.41,2.89,2.06,4.79,2.06c1.92,0,3.84,0.02,5.75-0.01
		c1.71-0.02,3.11-0.7,4.43-1.82c1.75-1.5,2.56-3.19,2.3-5.54c-0.21-1.89-0.05-3.83-0.04-5.75c0.01-2.86,1.53-4.95,4.06-5.62
		c2.64-0.69,5.06,0.38,6.49,2.87c0.04,0.07,0.11,0.14,0.07,0.09c0.78-0.7,1.6-1.35,2.33-2.09c1.95-1.98,4.08-2.51,6.08-1.46
		c2.01,1.06,3.23,3.8,2.77,6.2c-0.26,1.35-0.91,2.47-1.85,3.46c-2.38,2.52-4.83,4.97-7.09,7.6c-3.06,3.56-6.07,7.18-8.89,10.92
		c-2.85,3.78-6.41,6.21-11.12,6.84c-1.28,0.17-2.6,0.19-3.89,0.12c-1.71-0.1-3.09,0.38-4.19,1.71c-0.29,0.35-0.67,0.63-1.03,0.96
		c0.25,0.47,0.51,0.85,0.67,1.27c0.41,1.13,0.3,2.26-0.56,3.11c-1.16,1.16-2.4,2.24-3.67,3.26c-0.48,0.39-1.16,0.55-1.75,0.81
		C27.73,95.07,19.99,95.07,12.26,95.07z M38.45,84.77c0.62-0.68,1.16-1.32,1.75-1.91c1.35-1.36,3-2.03,4.92-2.03
		c1.02,0,2.04,0.02,3.06-0.02c4.13-0.15,7.4-1.93,9.9-5.21c1.97-2.58,3.95-5.15,5.95-7.71c0.64-0.81,0.98-1.68,0.97-2.73
		c-0.03-3.4,0-6.81-0.01-10.21c0-1.62-0.91-2.62-2.35-2.64c-1.5-0.02-2.44,0.98-2.46,2.63c-0.01,1.89,0,3.77,0,5.66
		c0,4.67,0,4.67-3.27,7.95c-1.4,1.4-3.05,2.39-5.03,2.53c-2.4,0.17-4.82,0.17-7.22,0.19c-2.76,0.02-5.12-0.93-7.04-2.97
		c-3.18-3.38-6.39-6.73-9.59-10.09c-0.4-0.42-0.82-0.81-1.23-1.21c-2.07,1.81-2.26,5.18-0.44,7.2c1.49,1.65,3.02,3.27,4.52,4.92
		c1.97,2.15,1.92,4.77-0.12,6.88c-0.35,0.36-0.69,0.74-1.07,1.14C32.61,79.67,35.42,82.13,38.45,84.77z M68.02,63.32
		c0.31-0.19,0.45-0.24,0.55-0.34c2.22-2.37,4.45-4.72,6.62-7.13c0.87-0.97,0.85-2.17,0.35-3.31c-0.57-1.31-1.91-1.56-2.95-0.57
		c-0.71,0.68-1.32,1.5-2.08,2.1c-2,1.58-2.92,3.52-2.51,6.1C68.15,61.14,68.02,62.16,68.02,63.32z"/>
	<path class="st2" d="M0,19.13c0.73-1.14,1.11-1.29,2.47-1.01c0.79,0.16,1.58,0.3,2.36,0.47c1,0.22,1.59,0.99,1.43,1.84
		c-0.16,0.89-0.94,1.44-1.94,1.28c-1.01-0.16-2.03-0.3-2.99-0.62c-0.5-0.16-0.89-0.68-1.33-1.04C0,19.74,0,19.43,0,19.13z"/>
	<path class="st2" d="M95.07,20.05c-0.42,0.72-1.04,1.07-1.87,1.18c-0.79,0.1-1.57,0.34-2.36,0.47c-1.05,0.17-1.86-0.35-2.02-1.28
		c-0.16-0.86,0.42-1.62,1.43-1.84c0.81-0.18,1.63-0.32,2.45-0.49c1.26-0.25,1.68-0.07,2.38,1.03
		C95.07,19.43,95.07,19.74,95.07,20.05z"/>
	<path class="st2" d="M0,36.95c0.46-0.73,1.13-1.05,1.98-1.16c0.76-0.1,1.51-0.31,2.27-0.45c0.98-0.18,1.78,0.3,2,1.19
		c0.21,0.86-0.34,1.67-1.32,1.9c-0.78,0.18-1.58,0.28-2.35,0.49C1.51,39.2,0.64,39,0,38.06C0,37.69,0,37.32,0,36.95z"/>
	<path class="st2" d="M95.07,38.06c-0.63,0.96-1.51,1.13-2.57,0.85c-0.77-0.2-1.57-0.3-2.35-0.49c-0.98-0.23-1.52-1.04-1.31-1.9
		c0.22-0.9,1-1.38,1.99-1.2c0.91,0.17,1.84,0.27,2.71,0.57c0.56,0.19,1.02,0.69,1.53,1.05C95.07,37.32,95.07,37.69,95.07,38.06z"/>
	<path class="st2" d="M28.82,84.2c0.54,0.31,0.96,0.46,1.25,0.73c0.9,0.84,1.77,1.72,2.63,2.61c0.72,0.75,0.74,1.65,0.09,2.29
		c-0.59,0.59-1.56,0.61-2.25-0.04c-0.94-0.89-1.86-1.81-2.75-2.75c-0.48-0.51-0.69-1.17-0.26-1.77
		C27.84,84.84,28.37,84.56,28.82,84.2z"/>
	<path class="st2" d="M86.85,55.78c-0.57-0.24-0.94-0.33-1.24-0.52c-0.81-0.51-1.61-1.04-2.39-1.59c-0.83-0.59-1.04-1.51-0.53-2.25
		c0.5-0.74,1.37-0.93,2.2-0.41c0.89,0.55,1.77,1.14,2.62,1.75c0.61,0.44,0.93,1.11,0.58,1.78C87.82,55.04,87.25,55.39,86.85,55.78z"
		/>
	<path class="st2" d="M12.65,52.57c-0.13,0.2-0.33,0.71-0.7,1.01c-0.82,0.65-1.72,1.21-2.61,1.76c-0.81,0.5-1.73,0.3-2.21-0.42
		c-0.49-0.73-0.32-1.63,0.47-2.19c0.85-0.61,1.72-1.21,2.62-1.74C11.32,50.32,12.61,51.02,12.65,52.57z"/>
	<path class="st2" d="M83.89,6.5c-0.43-0.34-1.07-0.6-1.24-1.04c-0.18-0.49-0.15-1.38,0.17-1.67c0.99-0.87,2.12-1.6,3.27-2.24
		c0.63-0.35,1.35-0.1,1.8,0.54c0.44,0.63,0.51,1.4-0.07,1.86c-1.08,0.86-2.28,1.57-3.44,2.33c-0.09,0.06-0.24,0.04-0.36,0.06
		C83.98,6.39,83.94,6.44,83.89,6.5z"/>
	<path class="st2" d="M12.65,4.52c0,1.39-1.18,2.2-2.21,1.64C9.39,5.58,8.39,4.89,7.43,4.17C6.78,3.68,6.7,2.82,7.11,2.16
		c0.4-0.64,1.27-0.99,1.95-0.6c1.09,0.63,2.13,1.37,3.14,2.13C12.48,3.9,12.57,4.36,12.65,4.52z"/>
	<path class="st2" d="M17.33,83.74c-0.01,0.83-0.74,1.53-1.57,1.5c-0.79-0.02-1.46-0.71-1.47-1.5c-0.01-1.04,0.51-1.57,1.52-1.54
		C16.68,82.23,17.34,82.89,17.33,83.74z"/>
	<path class="st3" d="M68.57,62.97c-0.09,0.1-0.24,0.15-0.55,0.34c0-1.16,0.13-2.18-0.03-3.16c-0.41-2.58,0.51-4.52,2.51-6.1
		c0.77-0.61,1.37-1.42,2.08-2.1c1.04-0.99,2.38-0.74,2.95,0.57"/>
</g>
</svg>
