<?xml version="1.0" encoding="utf-8"?>
<!-- Generator: Adobe Illustrator 24.0.1, SVG Export Plug-In . SVG Version: 6.00 Build 0)  -->
<svg version="1.1" id="Layer_1" xmlns="http://www.w3.org/2000/svg" xmlns:xlink="http://www.w3.org/1999/xlink" x="0px" y="0px"
	 viewBox="0 0 68.61 91.44" style="enable-background:new 0 0 68.61 91.44;" xml:space="preserve">
<style type="text/css">
	.st0{fill:#2B2D71;}
	.st1{fill:#56BBE8;}
</style>
<g>
	<g>
		<g id="Layer_191_6_">
			<rect x="32.66" y="9.8" class="st0" width="3.26" height="3.26"/>
			<rect x="32.66" y="16.33" class="st0" width="3.26" height="3.26"/>
			<rect x="32.66" y="42.45" class="st0" width="3.26" height="3.26"/>
			<rect x="32.66" y="48.99" class="st0" width="3.26" height="3.26"/>
			<rect x="32.66" y="55.52" class="st0" width="3.26" height="3.26"/>
			<rect x="32.66" y="62.04" class="st0" width="3.26" height="3.26"/>
			<rect x="39.19" y="22.86" class="st0" width="3.26" height="3.26"/>
			<rect x="39.19" y="35.92" class="st0" width="3.26" height="3.26"/>
			<rect x="39.19" y="42.45" class="st0" width="3.26" height="3.26"/>
			<rect x="39.19" y="48.99" class="st0" width="3.26" height="3.26"/>
			<rect x="39.19" y="55.52" class="st0" width="3.26" height="3.26"/>
			<rect x="39.19" y="62.04" class="st0" width="3.26" height="3.26"/>
			<rect x="26.13" y="22.86" class="st0" width="3.26" height="3.26"/>
			<rect x="26.13" y="35.92" class="st0" width="3.26" height="3.26"/>
			<rect x="26.13" y="42.45" class="st0" width="3.26" height="3.26"/>
			<rect x="26.13" y="48.99" class="st0" width="3.26" height="3.26"/>
			<rect x="26.13" y="55.52" class="st0" width="3.26" height="3.26"/>
			<rect x="26.13" y="62.04" class="st0" width="3.26" height="3.26"/>
			<path class="st0" d="M48.99,91.44H19.6V16.36h6.53V3.26h16.36v13.09h6.54L48.99,91.44z M22.86,88.18h22.86V19.6h-6.54V6.54H29.4
				V19.6h-6.54V88.18z"/>
			<rect x="32.66" class="st0" width="3.26" height="4.9"/>
			<rect x="52.25" y="55.52" class="st0" width="3.26" height="3.26"/>
			<rect x="52.25" y="62.04" class="st0" width="3.26" height="3.26"/>
			<rect x="52.25" y="68.58" class="st0" width="3.26" height="3.26"/>
			<rect x="52.25" y="75.11" class="st0" width="3.26" height="3.26"/>
			<rect x="52.25" y="81.64" class="st0" width="3.26" height="3.26"/>
			<rect x="58.78" y="68.58" class="st0" width="3.26" height="3.26"/>
			<rect x="58.78" y="75.11" class="st0" width="3.26" height="3.26"/>
			<rect x="58.78" y="81.64" class="st0" width="3.26" height="3.26"/>
			<path class="st0" d="M68.58,91.44H45.72V48.99h16.36v13.06h6.53L68.58,91.44z M48.99,88.18h16.36V65.31h-6.56V52.25h-9.79V88.18z
				"/>
			<rect x="13.06" y="55.52" class="st0" width="3.26" height="3.26"/>
			<rect x="13.06" y="62.04" class="st0" width="3.26" height="3.26"/>
			<rect x="13.06" y="68.58" class="st0" width="3.26" height="3.26"/>
			<rect x="13.06" y="75.11" class="st0" width="3.26" height="3.26"/>
			<rect x="13.06" y="81.64" class="st0" width="3.26" height="3.26"/>
			<rect x="6.54" y="68.58" class="st0" width="3.26" height="3.26"/>
			<rect x="6.54" y="75.11" class="st0" width="3.26" height="3.26"/>
			<rect x="6.54" y="81.64" class="st0" width="3.26" height="3.26"/>
			<path class="st0" d="M22.86,91.44H0v-29.4h6.54V48.99h16.36L22.86,91.44z M3.27,88.18h16.36V52.25h-9.8v13.06H3.27V88.18z"/>
		</g>
	</g>
	<polygon class="st1" points="43.31,22.92 36.09,22.92 36.09,15.7 32.49,15.7 32.49,22.92 25.27,22.92 25.27,26.52 32.49,26.52 
		32.49,33.73 36.09,33.73 36.09,26.52 43.31,26.52 	"/>
	<polygon class="st1" points="39.7,66.19 25.27,66.19 25.27,66.19 25.27,66.19 25.27,87.84 28.88,87.84 28.88,70.52 39.7,70.52 
		39.7,87.84 43.3,87.84 43.3,70.52 43.3,66.19 	"/>
</g>
</svg>
